<?xml version="1.0" encoding="utf-8"?>
<!-- Generator: Adobe Illustrator 26.0.0, SVG Export Plug-In . SVG Version: 6.00 Build 0)  -->
<svg version="1.1" id="Layer_1" xmlns="http://www.w3.org/2000/svg" xmlns:xlink="http://www.w3.org/1999/xlink" x="0px" y="0px"
	 viewBox="0 0 640 93" style="enable-background:new 0 0 640 93;" xml:space="preserve">
<style type="text/css">
	.st0{fill:#FFFFFF;}
</style>
<path class="st0" d="M33.1,44.6c-6.4,15.8,3.5,25.3,22.2,21.5L54.5,71c-23.8,4.9-36.7-5.6-28.8-23.7C31.4,34,47.7,17.8,63.8,10.7
	l-0.6,4.1C50.1,21.5,37.8,33,33.1,44.6z"/>
<path class="st0" d="M23.2,47.7c-8.4,19.5,5.3,30.9,30.8,25.6L53,80.1c-0.9,0.2-1.8,0.4-2.7,0.6c-29,6.5-44.1-9-35-31.5
	c7.3-18.1,28.9-36.6,49.2-42.8L64,9.6C46.1,16.9,29.4,33.4,23.2,47.7z"/>
<path class="st0" d="M4.9,51.7C13.8,30.4,39.6,9.9,65.1,2.8l-0.4,2.4c-21.9,6.5-43.9,25.2-51.6,44.2C3.5,73.1,19.3,89.8,49.8,83
	c1-0.2,1.9-0.4,2.8-0.7l-1.2,7.2c-3.4,1.1-14.7,4.5-26.6,2.3C4.9,88-3.3,71.4,4.9,51.7"/>
<path class="st0" d="M61,69.3c-1.7,0.5-3.5,1-4.7,1.3l0.7-4.8c1.2-0.3,2.9-0.7,4.2-1.1L61,69.3z"/>
<path class="st0" d="M60.4,86.4c-2.1,0.8-4.6,1.7-6.4,2.3l0.9-6.9c1.5-0.5,3.9-1.2,5.7-1.8L60.4,86.4z"/>
<path class="st0" d="M60.7,77.9c-1.5,0.5-3.4,1-5.5,1.6l0.9-6.7c1.9-0.4,3.5-0.9,4.9-1.4L60.7,77.9z"/>
<path class="st0" d="M117.5,44.4c6,15.6-3.4,25.3-21.1,21.9l0.7,4.8c22.6,4.5,34.8-6.3,27.4-24.2c-5.4-13.1-20.9-28.9-36.2-35.7
	l0.6,4.1C101.4,21.7,113.1,32.9,117.5,44.4z"/>
<path class="st0" d="M126.9,47.3c8,19.3-5.1,30.9-29.4,26.1l1,6.8c0.9,0.2,1.7,0.4,2.6,0.6c27.6,5.9,41.9-9.8,33.3-32.1
	C127.5,30.7,107,12.7,87.7,6.8l0.5,3.2C105.2,17,121,33.2,126.9,47.3z"/>
<path class="st0" d="M144.2,50.9c-8.3-21-32.8-41-57-47.5l0.4,2.4c20.8,6.1,41.6,24.3,48.9,43.1c9.1,23.4-6,40.4-34.9,34.2
	c-0.9-0.2-1.8-0.4-2.6-0.6l1.1,7.2c3.2,1,13.9,4.2,25.3,1.7C144.2,87.1,152,70.5,144.2,50.9"/>
<path class="st0" d="M90.9,69.6c1.6,0.5,3.3,0.9,4.5,1.2L94.7,66c-1.2-0.2-2.8-0.7-4-1L90.9,69.6z"/>
<path class="st0" d="M91.5,86.6c2,0.7,4.4,1.6,6.1,2.2l-0.8-6.9c-1.5-0.4-3.7-1.1-5.4-1.6L91.5,86.6z"/>
<path class="st0" d="M91.2,78.2c1.4,0.4,3.2,1,5.2,1.5l-0.8-6.6c-1.8-0.4-3.4-0.9-4.7-1.3L91.2,78.2z"/>
<path class="st0" d="M249.9,90.2h-20.3c-7.6,0-12.7-1.9-15.7-5.7c-3-3.7-3.7-9.4-2.2-16.9l9.1-43c1.9-9,4.9-15,8.8-18.2
	c3.8-3.1,10.4-4.5,19.3-4.5h17.5l-2.2,10h-12.7c-4,0-6.7,0.8-8.6,2.5c-1.9,1.7-3.1,4.7-4,8.9l-1.7,7.7h21.1l-2.5,11.8h-21.1
	l-4.8,22.8c-1.1,5.3-1.1,9,0.2,11.3c1.3,2.3,4.2,3.4,8.5,3.4H252L249.9,90.2z"/>
<path class="st0" d="M310.5,90.2h-17.8l14.9-69.9c0.5-2.7,0.2-4.5-0.8-5.9c-1.1-1.4-3.2-2-6.2-2h-3.1l-16.6,77.8h-17.8l18.7-88.3
	h29.6c5.6,0,9.7,1.6,12.1,4.7c2.4,3.1,3.2,7.5,2,13.1L310.5,90.2z"/>
<path class="st0" d="M387.7,11.9h-16.8l-16.6,78.3h-17.8l16.6-78.3h-16.5l2-10h51L387.7,11.9z"/>
<path class="st0" d="M499.7,65.8c-1.8,8.8-5.3,15.3-10.1,19.5c-4.8,4.2-11.5,6.4-19.7,6.4c-7.9,0-13.4-2.2-16.8-6.6
	c-3.4-4.4-4-10.7-2.2-19.2l13.6-63.9h17.8l-13.5,63.5c-1.1,4.8-1.3,8.2-0.8,10.2c0.5,2,2,3,4.7,3c1.1,0,2.2-0.2,3.2-0.7
	s1.8-1.3,2.4-2.2c1.4-1.8,2.6-5.3,3.7-10.3l13.5-63.5h17.8L499.7,65.8z"/>
<path class="st0" d="M636.5,46.3c-3.8,17.9-8.5,30-14.2,36.2c-2.7,3-6,5.3-9.7,6.9c-3.7,1.6-7.7,2.4-11.7,2.3
	c-8.6,0-14.5-3.1-17.7-9.3c-3.1-6.1-2.7-18.3,1.1-36.2c3.8-18.2,8.6-30.2,14.2-36.3c2.8-2.9,6.1-5.3,9.8-6.8
	c3.7-1.6,7.7-2.3,11.8-2.2c8.8,0,14.8,2.7,17.9,8.2C641.1,14.6,640.6,27,636.5,46.3L636.5,46.3z M618.1,46.3
	c1.8-8.1,3.2-16.3,4.1-24.5c0.6-5.7-1.1-8.5-4.8-8.5c-3.7,0-6.5,2.9-8.5,8.6c-2.6,8-4.6,16.1-6.2,24.4c-2.5,11.8-4,20.3-4.2,25.5
	c-0.2,5.2,1.4,7.6,5,7.6s6.5-2.7,8.4-8.5C613.8,65.2,615.8,57,618.1,46.3"/>
<path class="st0" d="M440.1,46.3c-3.8,17.9-8.5,30-14.2,36.2c-2.7,3-6,5.3-9.7,6.9c-3.7,1.6-7.7,2.4-11.7,2.3
	c-8.6,0-14.5-3.1-17.7-9.3c-3.1-6.1-2.7-18.3,1.1-36.2c3.8-18.2,8.6-30.2,14.2-36.3c2.8-2.9,6.1-5.3,9.8-6.8
	c3.7-1.6,7.7-2.3,11.8-2.2c8.8,0,14.8,2.7,17.9,8.2C444.7,14.6,444.2,27,440.1,46.3L440.1,46.3z M421.7,46.3
	c1.8-8.1,3.2-16.3,4.1-24.5c0.6-5.7-1.1-8.5-4.8-8.5c-3.7,0-6.5,2.9-8.5,8.6c-2.6,8-4.6,16.1-6.2,24.4c-2.5,11.8-4,20.3-4.2,25.5
	c-0.2,5.2,1.4,7.6,5,7.6s6.5-2.7,8.4-8.5C417.4,65.2,419.5,57,421.7,46.3"/>
<path class="st0" d="M197.5,90.2h-20.4c-7.4,0-12.7-1.9-15.7-5.7c-3-3.7-3.7-9.4-2-16.9l9.1-43c1.9-9,4.8-15,8.8-18.2
	c4-3.1,10.3-4.5,19.3-4.5H214l-2.2,10h-12.7c-3.8,0-6.7,0.8-8.5,2.5c-1.8,1.7-3.2,4.7-4.1,8.9l-1.7,7.7l-2.4,11.8l-4.9,22.8
	c-1.1,5.3-1,9,0.2,11.3c1.2,2.3,4.2,3.4,8.6,3.4h13.2L197.5,90.2z"/>
<path class="st0" d="M557.2,25.6c1.2-5.4,1.3-9.1,0.6-11c-0.7-1.9-2.6-2.9-5.8-2.9h-4.7l-5.8,27.2h5.2c1.2,0,2.5-0.2,3.6-0.7
	c1.1-0.5,2.1-1.3,2.9-2.3C554.8,34,556.2,30.5,557.2,25.6L557.2,25.6z M552.3,56.3c0.5-2.3,0.1-4-0.8-5c-1-1.1-2.5-1.8-4.7-1.8h-7.4
	l-8.6,40.8h-17.8l18.7-88.3h27.1c7.4,0,12.5,1.7,15.1,5.2c2.6,3.5,3.4,8.5,1.8,15.5c-1.1,5.3-3,9.6-5.9,12.9
	c-2.8,3.3-6.6,5.7-10.8,6.9c4.1,0.5,7.1,2,8.9,4.7c1.8,2.6,2.2,5.9,1.3,9.7l-7.2,33.5h-16.9L552.3,56.3z"/>
</svg>
